<mxfile host="app.diagrams.net" modified="2024-02-04T14:52:32.324Z" agent="Mozilla/5.0 (Windows NT 10.0; Win64; x64) AppleWebKit/537.36 (KHTML, like Gecko) Chrome/121.0.0.0 Safari/537.36 Edg/121.0.0.0" etag="Yg_msSjCaKlyrT2eE6QU" version="23.0.1" type="github">
  <diagram name="Page-1" id="5ItVl3hsBHIYpCp5SJ1j">
    <mxGraphModel dx="2222" dy="967" grid="1" gridSize="10" guides="1" tooltips="1" connect="1" arrows="1" fold="1" page="1" pageScale="1" pageWidth="850" pageHeight="1100" math="0" shadow="0">
      <root>
        <mxCell id="0" />
        <mxCell id="1" parent="0" />
        <mxCell id="jhdbiIO49YJ1NEHSqmLw-105" value="" style="rounded=0;whiteSpace=wrap;html=1;fillColor=#bac8d3;strokeColor=#23445d;opacity=20;" vertex="1" parent="1">
          <mxGeometry x="220" y="230" width="480" height="350" as="geometry" />
        </mxCell>
        <mxCell id="jhdbiIO49YJ1NEHSqmLw-1" value="W" style="rounded=0;whiteSpace=wrap;html=1;fillColor=#fff2cc;strokeColor=#d6b656;" vertex="1" parent="1">
          <mxGeometry x="240" y="250" width="30" height="30" as="geometry" />
        </mxCell>
        <mxCell id="jhdbiIO49YJ1NEHSqmLw-2" value="W" style="rounded=0;whiteSpace=wrap;html=1;fillColor=#fff2cc;strokeColor=#d6b656;" vertex="1" parent="1">
          <mxGeometry x="290" y="250" width="30" height="30" as="geometry" />
        </mxCell>
        <mxCell id="jhdbiIO49YJ1NEHSqmLw-3" value="W" style="rounded=0;whiteSpace=wrap;html=1;fillColor=#fff2cc;strokeColor=#d6b656;" vertex="1" parent="1">
          <mxGeometry x="340" y="250" width="30" height="30" as="geometry" />
        </mxCell>
        <mxCell id="jhdbiIO49YJ1NEHSqmLw-4" value="W" style="rounded=0;whiteSpace=wrap;html=1;fillColor=#dae8fc;strokeColor=#6c8ebf;" vertex="1" parent="1">
          <mxGeometry x="390" y="250" width="30" height="30" as="geometry" />
        </mxCell>
        <mxCell id="jhdbiIO49YJ1NEHSqmLw-5" value="W" style="rounded=0;whiteSpace=wrap;html=1;fillColor=#dae8fc;strokeColor=#6c8ebf;" vertex="1" parent="1">
          <mxGeometry x="440" y="250" width="30" height="30" as="geometry" />
        </mxCell>
        <mxCell id="jhdbiIO49YJ1NEHSqmLw-6" value="W" style="rounded=0;whiteSpace=wrap;html=1;fillColor=#dae8fc;strokeColor=#6c8ebf;" vertex="1" parent="1">
          <mxGeometry x="490" y="250" width="30" height="30" as="geometry" />
        </mxCell>
        <mxCell id="jhdbiIO49YJ1NEHSqmLw-7" value="W" style="rounded=0;whiteSpace=wrap;html=1;fillColor=#d5e8d4;strokeColor=#82b366;" vertex="1" parent="1">
          <mxGeometry x="560" y="250" width="30" height="30" as="geometry" />
        </mxCell>
        <mxCell id="jhdbiIO49YJ1NEHSqmLw-8" value="W" style="rounded=0;whiteSpace=wrap;html=1;fillColor=#d5e8d4;strokeColor=#82b366;" vertex="1" parent="1">
          <mxGeometry x="610" y="250" width="30" height="30" as="geometry" />
        </mxCell>
        <mxCell id="jhdbiIO49YJ1NEHSqmLw-9" value="W" style="rounded=0;whiteSpace=wrap;html=1;fillColor=#d5e8d4;strokeColor=#82b366;" vertex="1" parent="1">
          <mxGeometry x="660" y="250" width="30" height="30" as="geometry" />
        </mxCell>
        <mxCell id="jhdbiIO49YJ1NEHSqmLw-10" value="..." style="text;html=1;strokeColor=none;fillColor=none;align=center;verticalAlign=middle;whiteSpace=wrap;rounded=0;" vertex="1" parent="1">
          <mxGeometry x="510" y="297" width="60" height="30" as="geometry" />
        </mxCell>
        <mxCell id="jhdbiIO49YJ1NEHSqmLw-11" value="W" style="rounded=0;whiteSpace=wrap;html=1;fillColor=#f5f5f5;fontColor=#333333;strokeColor=#666666;" vertex="1" parent="1">
          <mxGeometry x="240" y="297" width="30" height="30" as="geometry" />
        </mxCell>
        <mxCell id="jhdbiIO49YJ1NEHSqmLw-12" value="W" style="rounded=0;whiteSpace=wrap;html=1;fillColor=#f5f5f5;fontColor=#333333;strokeColor=#666666;" vertex="1" parent="1">
          <mxGeometry x="290" y="297" width="30" height="30" as="geometry" />
        </mxCell>
        <mxCell id="jhdbiIO49YJ1NEHSqmLw-13" value="W" style="rounded=0;whiteSpace=wrap;html=1;fillColor=#f5f5f5;fontColor=#333333;strokeColor=#666666;" vertex="1" parent="1">
          <mxGeometry x="340" y="297" width="30" height="30" as="geometry" />
        </mxCell>
        <mxCell id="jhdbiIO49YJ1NEHSqmLw-14" value="W" style="rounded=0;whiteSpace=wrap;html=1;fillColor=#f5f5f5;fontColor=#333333;strokeColor=#666666;" vertex="1" parent="1">
          <mxGeometry x="390" y="297" width="30" height="30" as="geometry" />
        </mxCell>
        <mxCell id="jhdbiIO49YJ1NEHSqmLw-15" value="W" style="rounded=0;whiteSpace=wrap;html=1;fillColor=#f5f5f5;fontColor=#333333;strokeColor=#666666;" vertex="1" parent="1">
          <mxGeometry x="440" y="297" width="30" height="30" as="geometry" />
        </mxCell>
        <mxCell id="jhdbiIO49YJ1NEHSqmLw-16" value="W" style="rounded=0;whiteSpace=wrap;html=1;fillColor=#f5f5f5;fontColor=#333333;strokeColor=#666666;" vertex="1" parent="1">
          <mxGeometry x="490" y="297" width="30" height="30" as="geometry" />
        </mxCell>
        <mxCell id="jhdbiIO49YJ1NEHSqmLw-17" value="W" style="rounded=0;whiteSpace=wrap;html=1;fillColor=#f5f5f5;fontColor=#333333;strokeColor=#666666;" vertex="1" parent="1">
          <mxGeometry x="560" y="297" width="30" height="30" as="geometry" />
        </mxCell>
        <mxCell id="jhdbiIO49YJ1NEHSqmLw-18" value="W" style="rounded=0;whiteSpace=wrap;html=1;fillColor=#f5f5f5;fontColor=#333333;strokeColor=#666666;" vertex="1" parent="1">
          <mxGeometry x="610" y="297" width="30" height="30" as="geometry" />
        </mxCell>
        <mxCell id="jhdbiIO49YJ1NEHSqmLw-19" value="W" style="rounded=0;whiteSpace=wrap;html=1;fillColor=#f5f5f5;fontColor=#333333;strokeColor=#666666;" vertex="1" parent="1">
          <mxGeometry x="660" y="297" width="30" height="30" as="geometry" />
        </mxCell>
        <mxCell id="jhdbiIO49YJ1NEHSqmLw-20" value="W" style="rounded=0;whiteSpace=wrap;html=1;fillColor=#f5f5f5;fontColor=#333333;strokeColor=#666666;" vertex="1" parent="1">
          <mxGeometry x="240" y="360" width="30" height="30" as="geometry" />
        </mxCell>
        <mxCell id="jhdbiIO49YJ1NEHSqmLw-21" value="W" style="rounded=0;whiteSpace=wrap;html=1;fillColor=#f5f5f5;fontColor=#333333;strokeColor=#666666;" vertex="1" parent="1">
          <mxGeometry x="290" y="360" width="30" height="30" as="geometry" />
        </mxCell>
        <mxCell id="jhdbiIO49YJ1NEHSqmLw-22" value="W" style="rounded=0;whiteSpace=wrap;html=1;fillColor=#f5f5f5;fontColor=#333333;strokeColor=#666666;" vertex="1" parent="1">
          <mxGeometry x="340" y="360" width="30" height="30" as="geometry" />
        </mxCell>
        <mxCell id="jhdbiIO49YJ1NEHSqmLw-23" value="W" style="rounded=0;whiteSpace=wrap;html=1;fillColor=#f5f5f5;fontColor=#333333;strokeColor=#666666;" vertex="1" parent="1">
          <mxGeometry x="390" y="360" width="30" height="30" as="geometry" />
        </mxCell>
        <mxCell id="jhdbiIO49YJ1NEHSqmLw-24" value="W" style="rounded=0;whiteSpace=wrap;html=1;fillColor=#f5f5f5;fontColor=#333333;strokeColor=#666666;" vertex="1" parent="1">
          <mxGeometry x="440" y="360" width="30" height="30" as="geometry" />
        </mxCell>
        <mxCell id="jhdbiIO49YJ1NEHSqmLw-25" value="W" style="rounded=0;whiteSpace=wrap;html=1;fillColor=#f5f5f5;fontColor=#333333;strokeColor=#666666;" vertex="1" parent="1">
          <mxGeometry x="490" y="360" width="30" height="30" as="geometry" />
        </mxCell>
        <mxCell id="jhdbiIO49YJ1NEHSqmLw-26" value="W" style="rounded=0;whiteSpace=wrap;html=1;fillColor=#f5f5f5;fontColor=#333333;strokeColor=#666666;" vertex="1" parent="1">
          <mxGeometry x="560" y="360" width="30" height="30" as="geometry" />
        </mxCell>
        <mxCell id="jhdbiIO49YJ1NEHSqmLw-27" value="W" style="rounded=0;whiteSpace=wrap;html=1;fillColor=#f5f5f5;fontColor=#333333;strokeColor=#666666;" vertex="1" parent="1">
          <mxGeometry x="610" y="360" width="30" height="30" as="geometry" />
        </mxCell>
        <mxCell id="jhdbiIO49YJ1NEHSqmLw-28" value="W" style="rounded=0;whiteSpace=wrap;html=1;fillColor=#f5f5f5;fontColor=#333333;strokeColor=#666666;" vertex="1" parent="1">
          <mxGeometry x="660" y="360" width="30" height="30" as="geometry" />
        </mxCell>
        <mxCell id="jhdbiIO49YJ1NEHSqmLw-38" value="..." style="text;html=1;strokeColor=none;fillColor=none;align=center;verticalAlign=middle;whiteSpace=wrap;rounded=0;labelPosition=center;verticalLabelPosition=middle;rotation=90;" vertex="1" parent="1">
          <mxGeometry x="229" y="331" width="60" height="30" as="geometry" />
        </mxCell>
        <mxCell id="jhdbiIO49YJ1NEHSqmLw-39" value="W" style="rounded=0;whiteSpace=wrap;html=1;fillColor=#fff2cc;strokeColor=#d6b656;" vertex="1" parent="1">
          <mxGeometry x="240" y="420" width="30" height="30" as="geometry" />
        </mxCell>
        <mxCell id="jhdbiIO49YJ1NEHSqmLw-40" value="W" style="rounded=0;whiteSpace=wrap;html=1;fillColor=#fff2cc;strokeColor=#d6b656;" vertex="1" parent="1">
          <mxGeometry x="290" y="420" width="30" height="30" as="geometry" />
        </mxCell>
        <mxCell id="jhdbiIO49YJ1NEHSqmLw-41" value="W" style="rounded=0;whiteSpace=wrap;html=1;fillColor=#fff2cc;strokeColor=#d6b656;" vertex="1" parent="1">
          <mxGeometry x="340" y="420" width="30" height="30" as="geometry" />
        </mxCell>
        <mxCell id="jhdbiIO49YJ1NEHSqmLw-42" value="W" style="rounded=0;whiteSpace=wrap;html=1;fillColor=#dae8fc;strokeColor=#6c8ebf;" vertex="1" parent="1">
          <mxGeometry x="390" y="420" width="30" height="30" as="geometry" />
        </mxCell>
        <mxCell id="jhdbiIO49YJ1NEHSqmLw-43" value="W" style="rounded=0;whiteSpace=wrap;html=1;fillColor=#dae8fc;strokeColor=#6c8ebf;" vertex="1" parent="1">
          <mxGeometry x="440" y="420" width="30" height="30" as="geometry" />
        </mxCell>
        <mxCell id="jhdbiIO49YJ1NEHSqmLw-44" value="W" style="rounded=0;whiteSpace=wrap;html=1;fillColor=#dae8fc;strokeColor=#6c8ebf;" vertex="1" parent="1">
          <mxGeometry x="490" y="420" width="30" height="30" as="geometry" />
        </mxCell>
        <mxCell id="jhdbiIO49YJ1NEHSqmLw-45" value="W" style="rounded=0;whiteSpace=wrap;html=1;fillColor=#d5e8d4;strokeColor=#82b366;" vertex="1" parent="1">
          <mxGeometry x="560" y="420" width="30" height="30" as="geometry" />
        </mxCell>
        <mxCell id="jhdbiIO49YJ1NEHSqmLw-46" value="W" style="rounded=0;whiteSpace=wrap;html=1;fillColor=#d5e8d4;strokeColor=#82b366;" vertex="1" parent="1">
          <mxGeometry x="610" y="420" width="30" height="30" as="geometry" />
        </mxCell>
        <mxCell id="jhdbiIO49YJ1NEHSqmLw-47" value="W" style="rounded=0;whiteSpace=wrap;html=1;fillColor=#d5e8d4;strokeColor=#82b366;" vertex="1" parent="1">
          <mxGeometry x="660" y="420" width="30" height="30" as="geometry" />
        </mxCell>
        <mxCell id="jhdbiIO49YJ1NEHSqmLw-48" value="..." style="text;html=1;strokeColor=none;fillColor=none;align=center;verticalAlign=middle;whiteSpace=wrap;rounded=0;" vertex="1" parent="1">
          <mxGeometry x="510" y="467" width="60" height="30" as="geometry" />
        </mxCell>
        <mxCell id="jhdbiIO49YJ1NEHSqmLw-49" value="W" style="rounded=0;whiteSpace=wrap;html=1;fillColor=#f5f5f5;fontColor=#333333;strokeColor=#666666;" vertex="1" parent="1">
          <mxGeometry x="240" y="467" width="30" height="30" as="geometry" />
        </mxCell>
        <mxCell id="jhdbiIO49YJ1NEHSqmLw-50" value="W" style="rounded=0;whiteSpace=wrap;html=1;fillColor=#f5f5f5;fontColor=#333333;strokeColor=#666666;" vertex="1" parent="1">
          <mxGeometry x="290" y="467" width="30" height="30" as="geometry" />
        </mxCell>
        <mxCell id="jhdbiIO49YJ1NEHSqmLw-51" value="W" style="rounded=0;whiteSpace=wrap;html=1;fillColor=#f5f5f5;fontColor=#333333;strokeColor=#666666;" vertex="1" parent="1">
          <mxGeometry x="340" y="467" width="30" height="30" as="geometry" />
        </mxCell>
        <mxCell id="jhdbiIO49YJ1NEHSqmLw-52" value="W" style="rounded=0;whiteSpace=wrap;html=1;fillColor=#f5f5f5;fontColor=#333333;strokeColor=#666666;" vertex="1" parent="1">
          <mxGeometry x="390" y="467" width="30" height="30" as="geometry" />
        </mxCell>
        <mxCell id="jhdbiIO49YJ1NEHSqmLw-53" value="W" style="rounded=0;whiteSpace=wrap;html=1;fillColor=#f5f5f5;fontColor=#333333;strokeColor=#666666;" vertex="1" parent="1">
          <mxGeometry x="440" y="467" width="30" height="30" as="geometry" />
        </mxCell>
        <mxCell id="jhdbiIO49YJ1NEHSqmLw-54" value="W" style="rounded=0;whiteSpace=wrap;html=1;fillColor=#f5f5f5;fontColor=#333333;strokeColor=#666666;" vertex="1" parent="1">
          <mxGeometry x="490" y="467" width="30" height="30" as="geometry" />
        </mxCell>
        <mxCell id="jhdbiIO49YJ1NEHSqmLw-55" value="W" style="rounded=0;whiteSpace=wrap;html=1;fillColor=#f5f5f5;fontColor=#333333;strokeColor=#666666;" vertex="1" parent="1">
          <mxGeometry x="560" y="467" width="30" height="30" as="geometry" />
        </mxCell>
        <mxCell id="jhdbiIO49YJ1NEHSqmLw-56" value="W" style="rounded=0;whiteSpace=wrap;html=1;fillColor=#f5f5f5;fontColor=#333333;strokeColor=#666666;" vertex="1" parent="1">
          <mxGeometry x="610" y="467" width="30" height="30" as="geometry" />
        </mxCell>
        <mxCell id="jhdbiIO49YJ1NEHSqmLw-57" value="W" style="rounded=0;whiteSpace=wrap;html=1;fillColor=#f5f5f5;fontColor=#333333;strokeColor=#666666;" vertex="1" parent="1">
          <mxGeometry x="660" y="467" width="30" height="30" as="geometry" />
        </mxCell>
        <mxCell id="jhdbiIO49YJ1NEHSqmLw-58" value="W" style="rounded=0;whiteSpace=wrap;html=1;fillColor=#f5f5f5;fontColor=#333333;strokeColor=#666666;" vertex="1" parent="1">
          <mxGeometry x="240" y="530" width="30" height="30" as="geometry" />
        </mxCell>
        <mxCell id="jhdbiIO49YJ1NEHSqmLw-59" value="W" style="rounded=0;whiteSpace=wrap;html=1;fillColor=#f5f5f5;fontColor=#333333;strokeColor=#666666;" vertex="1" parent="1">
          <mxGeometry x="290" y="530" width="30" height="30" as="geometry" />
        </mxCell>
        <mxCell id="jhdbiIO49YJ1NEHSqmLw-60" value="W" style="rounded=0;whiteSpace=wrap;html=1;fillColor=#f5f5f5;fontColor=#333333;strokeColor=#666666;" vertex="1" parent="1">
          <mxGeometry x="340" y="530" width="30" height="30" as="geometry" />
        </mxCell>
        <mxCell id="jhdbiIO49YJ1NEHSqmLw-61" value="W" style="rounded=0;whiteSpace=wrap;html=1;fillColor=#f5f5f5;fontColor=#333333;strokeColor=#666666;" vertex="1" parent="1">
          <mxGeometry x="390" y="530" width="30" height="30" as="geometry" />
        </mxCell>
        <mxCell id="jhdbiIO49YJ1NEHSqmLw-62" value="W" style="rounded=0;whiteSpace=wrap;html=1;fillColor=#f5f5f5;fontColor=#333333;strokeColor=#666666;" vertex="1" parent="1">
          <mxGeometry x="440" y="530" width="30" height="30" as="geometry" />
        </mxCell>
        <mxCell id="jhdbiIO49YJ1NEHSqmLw-63" value="W" style="rounded=0;whiteSpace=wrap;html=1;fillColor=#f5f5f5;fontColor=#333333;strokeColor=#666666;" vertex="1" parent="1">
          <mxGeometry x="490" y="530" width="30" height="30" as="geometry" />
        </mxCell>
        <mxCell id="jhdbiIO49YJ1NEHSqmLw-64" value="W" style="rounded=0;whiteSpace=wrap;html=1;fillColor=#f5f5f5;fontColor=#333333;strokeColor=#666666;" vertex="1" parent="1">
          <mxGeometry x="560" y="530" width="30" height="30" as="geometry" />
        </mxCell>
        <mxCell id="jhdbiIO49YJ1NEHSqmLw-65" value="W" style="rounded=0;whiteSpace=wrap;html=1;fillColor=#f5f5f5;fontColor=#333333;strokeColor=#666666;" vertex="1" parent="1">
          <mxGeometry x="610" y="530" width="30" height="30" as="geometry" />
        </mxCell>
        <mxCell id="jhdbiIO49YJ1NEHSqmLw-66" value="W" style="rounded=0;whiteSpace=wrap;html=1;fillColor=#f5f5f5;fontColor=#333333;strokeColor=#666666;" vertex="1" parent="1">
          <mxGeometry x="660" y="530" width="30" height="30" as="geometry" />
        </mxCell>
        <mxCell id="jhdbiIO49YJ1NEHSqmLw-67" value="..." style="text;html=1;strokeColor=none;fillColor=none;align=center;verticalAlign=middle;whiteSpace=wrap;rounded=0;labelPosition=center;verticalLabelPosition=middle;rotation=90;" vertex="1" parent="1">
          <mxGeometry x="229" y="501" width="60" height="30" as="geometry" />
        </mxCell>
        <mxCell id="jhdbiIO49YJ1NEHSqmLw-68" value="" style="shape=curlyBracket;whiteSpace=wrap;html=1;rounded=1;labelPosition=left;verticalLabelPosition=middle;align=right;verticalAlign=middle;" vertex="1" parent="1">
          <mxGeometry x="199" y="255" width="20" height="120" as="geometry" />
        </mxCell>
        <mxCell id="jhdbiIO49YJ1NEHSqmLw-69" value="M" style="text;html=1;strokeColor=none;fillColor=none;align=center;verticalAlign=middle;whiteSpace=wrap;rounded=0;" vertex="1" parent="1">
          <mxGeometry x="139" y="300" width="60" height="30" as="geometry" />
        </mxCell>
        <mxCell id="jhdbiIO49YJ1NEHSqmLw-70" value="" style="shape=curlyBracket;whiteSpace=wrap;html=1;rounded=1;labelPosition=left;verticalLabelPosition=middle;align=right;verticalAlign=middle;rotation=90;" vertex="1" parent="1">
          <mxGeometry x="299" y="150" width="20" height="120" as="geometry" />
        </mxCell>
        <mxCell id="jhdbiIO49YJ1NEHSqmLw-71" value="Bw" style="text;html=1;strokeColor=none;fillColor=none;align=center;verticalAlign=middle;whiteSpace=wrap;rounded=0;" vertex="1" parent="1">
          <mxGeometry x="279" y="160" width="60" height="30" as="geometry" />
        </mxCell>
        <mxCell id="jhdbiIO49YJ1NEHSqmLw-72" value="" style="shape=curlyBracket;whiteSpace=wrap;html=1;rounded=1;labelPosition=left;verticalLabelPosition=middle;align=right;verticalAlign=middle;rotation=90;" vertex="1" parent="1">
          <mxGeometry x="439" y="150" width="20" height="120" as="geometry" />
        </mxCell>
        <mxCell id="jhdbiIO49YJ1NEHSqmLw-73" value="" style="shape=curlyBracket;whiteSpace=wrap;html=1;rounded=1;labelPosition=left;verticalLabelPosition=middle;align=right;verticalAlign=middle;rotation=90;" vertex="1" parent="1">
          <mxGeometry x="614" y="150" width="20" height="120" as="geometry" />
        </mxCell>
        <mxCell id="jhdbiIO49YJ1NEHSqmLw-74" value="" style="shape=curlyBracket;whiteSpace=wrap;html=1;rounded=1;labelPosition=left;verticalLabelPosition=middle;align=right;verticalAlign=middle;rotation=90;direction=north;" vertex="1" parent="1">
          <mxGeometry x="149" y="476" width="120" height="20" as="geometry" />
        </mxCell>
        <mxCell id="jhdbiIO49YJ1NEHSqmLw-75" value="M" style="text;html=1;strokeColor=none;fillColor=none;align=center;verticalAlign=middle;whiteSpace=wrap;rounded=0;" vertex="1" parent="1">
          <mxGeometry x="139" y="471" width="60" height="30" as="geometry" />
        </mxCell>
        <mxCell id="jhdbiIO49YJ1NEHSqmLw-76" value="Bw" style="text;html=1;strokeColor=none;fillColor=none;align=center;verticalAlign=middle;whiteSpace=wrap;rounded=0;" vertex="1" parent="1">
          <mxGeometry x="419" y="160" width="60" height="30" as="geometry" />
        </mxCell>
        <mxCell id="jhdbiIO49YJ1NEHSqmLw-77" value="Bw" style="text;html=1;strokeColor=none;fillColor=none;align=center;verticalAlign=middle;whiteSpace=wrap;rounded=0;" vertex="1" parent="1">
          <mxGeometry x="594" y="160" width="60" height="30" as="geometry" />
        </mxCell>
        <mxCell id="jhdbiIO49YJ1NEHSqmLw-78" value="" style="shape=curlyBracket;whiteSpace=wrap;html=1;rounded=1;labelPosition=left;verticalLabelPosition=middle;align=right;verticalAlign=middle;rotation=90;" vertex="1" parent="1">
          <mxGeometry x="449" y="-60" width="20" height="410" as="geometry" />
        </mxCell>
        <mxCell id="jhdbiIO49YJ1NEHSqmLw-79" value="Dcol" style="text;html=1;strokeColor=none;fillColor=none;align=center;verticalAlign=middle;whiteSpace=wrap;rounded=0;" vertex="1" parent="1">
          <mxGeometry x="429" y="100" width="60" height="30" as="geometry" />
        </mxCell>
        <mxCell id="jhdbiIO49YJ1NEHSqmLw-80" value="" style="shape=curlyBracket;whiteSpace=wrap;html=1;rounded=1;labelPosition=left;verticalLabelPosition=middle;align=right;verticalAlign=middle;rotation=90;direction=north;" vertex="1" parent="1">
          <mxGeometry y="395" width="260" height="20" as="geometry" />
        </mxCell>
        <mxCell id="jhdbiIO49YJ1NEHSqmLw-81" value="Drow" style="text;html=1;strokeColor=none;fillColor=none;align=center;verticalAlign=middle;whiteSpace=wrap;rounded=0;" vertex="1" parent="1">
          <mxGeometry x="60" y="390" width="60" height="30" as="geometry" />
        </mxCell>
        <mxCell id="jhdbiIO49YJ1NEHSqmLw-89" style="edgeStyle=orthogonalEdgeStyle;rounded=0;orthogonalLoop=1;jettySize=auto;html=1;entryX=0.5;entryY=0;entryDx=0;entryDy=0;fillColor=#fff2cc;strokeColor=#d6b656;" edge="1" parent="1" source="jhdbiIO49YJ1NEHSqmLw-84" target="jhdbiIO49YJ1NEHSqmLw-88">
          <mxGeometry relative="1" as="geometry" />
        </mxCell>
        <mxCell id="jhdbiIO49YJ1NEHSqmLw-84" value="Adder Tree" style="rounded=0;whiteSpace=wrap;html=1;fillColor=#fff2cc;strokeColor=#d6b656;" vertex="1" parent="1">
          <mxGeometry x="240" y="600" width="130" height="60" as="geometry" />
        </mxCell>
        <mxCell id="jhdbiIO49YJ1NEHSqmLw-90" style="edgeStyle=orthogonalEdgeStyle;rounded=0;orthogonalLoop=1;jettySize=auto;html=1;entryX=0;entryY=0.5;entryDx=0;entryDy=0;exitX=0;exitY=0.5;exitDx=0;exitDy=0;fillColor=#fff2cc;strokeColor=#d6b656;" edge="1" parent="1" source="jhdbiIO49YJ1NEHSqmLw-87" target="jhdbiIO49YJ1NEHSqmLw-88">
          <mxGeometry relative="1" as="geometry" />
        </mxCell>
        <mxCell id="jhdbiIO49YJ1NEHSqmLw-87" value="register" style="rounded=0;whiteSpace=wrap;html=1;fillColor=#fff2cc;strokeColor=#d6b656;" vertex="1" parent="1">
          <mxGeometry x="270" y="720" width="70" height="50" as="geometry" />
        </mxCell>
        <mxCell id="jhdbiIO49YJ1NEHSqmLw-91" style="edgeStyle=orthogonalEdgeStyle;rounded=0;orthogonalLoop=1;jettySize=auto;html=1;entryX=0.5;entryY=0;entryDx=0;entryDy=0;fillColor=#fff2cc;strokeColor=#d6b656;" edge="1" parent="1" source="jhdbiIO49YJ1NEHSqmLw-88" target="jhdbiIO49YJ1NEHSqmLw-87">
          <mxGeometry relative="1" as="geometry" />
        </mxCell>
        <mxCell id="jhdbiIO49YJ1NEHSqmLw-88" value="" style="shape=orEllipse;perimeter=ellipsePerimeter;whiteSpace=wrap;html=1;backgroundOutline=1;fillColor=#fff2cc;strokeColor=#d6b656;" vertex="1" parent="1">
          <mxGeometry x="295" y="680" width="20" height="20" as="geometry" />
        </mxCell>
        <mxCell id="jhdbiIO49YJ1NEHSqmLw-92" style="edgeStyle=orthogonalEdgeStyle;rounded=0;orthogonalLoop=1;jettySize=auto;html=1;entryX=0.5;entryY=0;entryDx=0;entryDy=0;fillColor=#dae8fc;strokeColor=#6c8ebf;" edge="1" parent="1" source="jhdbiIO49YJ1NEHSqmLw-93" target="jhdbiIO49YJ1NEHSqmLw-97">
          <mxGeometry relative="1" as="geometry" />
        </mxCell>
        <mxCell id="jhdbiIO49YJ1NEHSqmLw-93" value="Adder Tree" style="rounded=0;whiteSpace=wrap;html=1;fillColor=#dae8fc;strokeColor=#6c8ebf;" vertex="1" parent="1">
          <mxGeometry x="390" y="600" width="130" height="60" as="geometry" />
        </mxCell>
        <mxCell id="jhdbiIO49YJ1NEHSqmLw-94" style="edgeStyle=orthogonalEdgeStyle;rounded=0;orthogonalLoop=1;jettySize=auto;html=1;entryX=0;entryY=0.5;entryDx=0;entryDy=0;exitX=0;exitY=0.5;exitDx=0;exitDy=0;fillColor=#dae8fc;strokeColor=#6c8ebf;" edge="1" parent="1" source="jhdbiIO49YJ1NEHSqmLw-95" target="jhdbiIO49YJ1NEHSqmLw-97">
          <mxGeometry relative="1" as="geometry" />
        </mxCell>
        <mxCell id="jhdbiIO49YJ1NEHSqmLw-95" value="register" style="rounded=0;whiteSpace=wrap;html=1;fillColor=#dae8fc;strokeColor=#6c8ebf;" vertex="1" parent="1">
          <mxGeometry x="420" y="720" width="70" height="50" as="geometry" />
        </mxCell>
        <mxCell id="jhdbiIO49YJ1NEHSqmLw-96" style="edgeStyle=orthogonalEdgeStyle;rounded=0;orthogonalLoop=1;jettySize=auto;html=1;entryX=0.5;entryY=0;entryDx=0;entryDy=0;fillColor=#dae8fc;strokeColor=#6c8ebf;" edge="1" parent="1" source="jhdbiIO49YJ1NEHSqmLw-97" target="jhdbiIO49YJ1NEHSqmLw-95">
          <mxGeometry relative="1" as="geometry" />
        </mxCell>
        <mxCell id="jhdbiIO49YJ1NEHSqmLw-97" value="" style="shape=orEllipse;perimeter=ellipsePerimeter;whiteSpace=wrap;html=1;backgroundOutline=1;fillColor=#dae8fc;strokeColor=#6c8ebf;" vertex="1" parent="1">
          <mxGeometry x="445" y="680" width="20" height="20" as="geometry" />
        </mxCell>
        <mxCell id="jhdbiIO49YJ1NEHSqmLw-98" style="edgeStyle=orthogonalEdgeStyle;rounded=0;orthogonalLoop=1;jettySize=auto;html=1;entryX=0.5;entryY=0;entryDx=0;entryDy=0;fillColor=#d5e8d4;strokeColor=#82b366;" edge="1" parent="1" source="jhdbiIO49YJ1NEHSqmLw-99" target="jhdbiIO49YJ1NEHSqmLw-103">
          <mxGeometry relative="1" as="geometry" />
        </mxCell>
        <mxCell id="jhdbiIO49YJ1NEHSqmLw-99" value="Adder Tree" style="rounded=0;whiteSpace=wrap;html=1;fillColor=#d5e8d4;strokeColor=#82b366;" vertex="1" parent="1">
          <mxGeometry x="560" y="600" width="130" height="60" as="geometry" />
        </mxCell>
        <mxCell id="jhdbiIO49YJ1NEHSqmLw-100" style="edgeStyle=orthogonalEdgeStyle;rounded=0;orthogonalLoop=1;jettySize=auto;html=1;entryX=0;entryY=0.5;entryDx=0;entryDy=0;exitX=0;exitY=0.5;exitDx=0;exitDy=0;fillColor=#d5e8d4;strokeColor=#82b366;" edge="1" parent="1" source="jhdbiIO49YJ1NEHSqmLw-101" target="jhdbiIO49YJ1NEHSqmLw-103">
          <mxGeometry relative="1" as="geometry" />
        </mxCell>
        <mxCell id="jhdbiIO49YJ1NEHSqmLw-101" value="register" style="rounded=0;whiteSpace=wrap;html=1;fillColor=#d5e8d4;strokeColor=#82b366;" vertex="1" parent="1">
          <mxGeometry x="590" y="720" width="70" height="50" as="geometry" />
        </mxCell>
        <mxCell id="jhdbiIO49YJ1NEHSqmLw-102" style="edgeStyle=orthogonalEdgeStyle;rounded=0;orthogonalLoop=1;jettySize=auto;html=1;entryX=0.5;entryY=0;entryDx=0;entryDy=0;fillColor=#d5e8d4;strokeColor=#82b366;" edge="1" parent="1" source="jhdbiIO49YJ1NEHSqmLw-103" target="jhdbiIO49YJ1NEHSqmLw-101">
          <mxGeometry relative="1" as="geometry" />
        </mxCell>
        <mxCell id="jhdbiIO49YJ1NEHSqmLw-103" value="" style="shape=orEllipse;perimeter=ellipsePerimeter;whiteSpace=wrap;html=1;backgroundOutline=1;fillColor=#d5e8d4;strokeColor=#82b366;" vertex="1" parent="1">
          <mxGeometry x="615" y="680" width="20" height="20" as="geometry" />
        </mxCell>
        <mxCell id="jhdbiIO49YJ1NEHSqmLw-106" value="Input Register" style="rounded=0;whiteSpace=wrap;html=1;fillColor=#f5f5f5;strokeColor=#666666;fontColor=#333333;" vertex="1" parent="1">
          <mxGeometry x="-10" y="230" width="70" height="350" as="geometry" />
        </mxCell>
      </root>
    </mxGraphModel>
  </diagram>
</mxfile>
